<svg xmlns="http://www.w3.org/2000/svg" xmlns:xlink="http://www.w3.org/1999/xlink" viewBox="0,0,256,256" width="192px" height="192px"><g fill="#f7f7ff" fill-rule="nonzero" stroke="none" stroke-width="1" stroke-linecap="butt" stroke-linejoin="miter" stroke-miterlimit="10" stroke-dasharray="" stroke-dashoffset="0" font-family="none" font-weight="none" font-size="none" text-anchor="none" style="mix-blend-mode: normal"><path d="M0,256v-256h256v256z" id="bgRectangle"></path></g><g fill="#000000" fill-rule="nonzero" stroke="none" stroke-width="1" stroke-linecap="butt" stroke-linejoin="miter" stroke-miterlimit="10" stroke-dasharray="" stroke-dashoffset="0" font-family="none" font-weight="none" font-size="none" text-anchor="none" style="mix-blend-mode: normal"><g transform="scale(10.66667,10.66667)"><rect x="16" y="3" width="3" height="3"></rect><path d="M19,16.702c0,1 -0.235,4.294 -3.141,5.294l-2.859,-1.294c2.078,-0.906 3,-2.484 3,-4c0,-2.094 0,-8.702 0,-8.702h3c0,0 0,6.452 0,8.702z"></path><path d="M9.97,16.533c-3.115,0 -3.58,-2.214 -3.58,-3.533c0,-2.313 1.372,-3.75 3.58,-3.75c0.357,0 0.768,0.054 1.254,0.166l0.776,0.177v6.597l-0.776,0.178c-0.485,0.111 -0.895,0.165 -1.254,0.165z" opacity="0.3"></path><path d="M11,3v5.159c-0.347,-0.141 -1.096,-0.159 -1.465,-0.159c-2.776,0 -5.345,1.306 -5.345,5c0,4.42 3.48,5 5.81,5c0.92,0 3,-0.09 4,-0.38v-14.62zM9.97,15.533c-1.31,0 -2.58,-0.413 -2.58,-2.533c0,-2.12 1.27,-2.45 2.58,-2.45c0.32,0 0.68,0.06 1.03,0.14v4.703c-0.35,0.08 -0.71,0.14 -1.03,0.14z"></path></g></g></svg>