<svg xmlns="http://www.w3.org/2000/svg" version="1.1" xmlns:xlink="http://www.w3.org/1999/xlink" xmlns:svgjs="http://svgjs.dev/svgjs" width="2000" height="1252" viewBox="0 0 2000 1252"><g transform="matrix(1,0,0,1,-1.2008081578802603,-2.01935483870966)"><svg viewBox="0 0 396 248" data-background-color="#f7f7ff" preserveAspectRatio="xMidYMid meet" height="1252" width="2000" xmlns="http://www.w3.org/2000/svg" xmlns:xlink="http://www.w3.org/1999/xlink"><g id="tight-bounds" transform="matrix(1,0,0,1,0.2400000000000091,0.4000000000000057)"><svg viewBox="0 0 395.52 247.2" height="247.2" width="395.52"><g><svg></svg></g><g><svg viewBox="0 0 395.52 247.2" height="247.2" width="395.52"><g><path d="M55.039 247.2l49.453-85.654h3.677l-47.513 82.295h274.208l-47.513-82.295 3.677 0 49.453 85.654zM197.76 0l49.453 85.654-3.678 0-45.775-79.285-45.775 79.285-3.678 0z" fill="#000000" fill-rule="nonzero" stroke="none" stroke-width="1" stroke-linecap="butt" stroke-linejoin="miter" stroke-miterlimit="10" stroke-dasharray="" stroke-dashoffset="0" font-family="none" font-weight="none" font-size="none" text-anchor="none" style="mix-blend-mode: normal" data-fill-palette-color="tertiary"></path></g><g transform="matrix(1,0,0,1,0,96.49591686909909)"><svg viewBox="0 0 395.52 54.20816626180179" height="54.20816626180179" width="395.52"><g><svg viewBox="0 0 501.34291317751274 68.71177182368191" height="54.20816626180179" width="395.52"><g><rect width="6.16567014289369" height="68.71177182368191" x="83.51674527835287" y="0" fill="#000000" opacity="1" stroke-width="0" stroke="transparent" fill-opacity="1" class="rect-yte-0" data-fill-palette-color="primary" rx="1%" id="yte-0" data-palette-color="#131112"></rect></g><g transform="matrix(1,0,0,1,105.82291317751276,0.17092480553154132)"><svg viewBox="0 0 395.52 68.36992221261883" height="68.36992221261883" width="395.52"><g id="textblocktransform"><svg viewBox="0 0 395.52 68.36992221261883" height="68.36992221261883" width="395.52" id="textblock"><g><svg viewBox="0 0 395.52 68.36992221261883" height="68.36992221261883" width="395.52"><g transform="matrix(1,0,0,1,0,0)"><svg width="395.52" viewBox="2.05 -37.5 289.22999999999996 50" height="68.36992221261883" data-palette-color="#131112"><path d="M25.05-15.45L25.05-15.45 25.05-19.15Q25.05-28.3 24.15-30.7L24.15-30.7Q23.15-33.45 21.3-34.1L21.3-34.1Q20.25-34.5 18.75-34.5 17.25-34.5 16.18-34.1 15.1-33.7 14.4-32.7 13.7-31.7 13.28-30.6 12.85-29.5 12.6-27.5L12.6-27.5Q12.3-24.6 12.3-18.95L12.3-18.95 12.3-15.35Q12.3-9.25 12.78-6.68 13.25-4.1 13.95-3L13.95-3Q15.5-0.55 18.75-0.55L18.75-0.55Q22.7-0.55 23.88-3.88 25.05-7.2 25.05-15.45ZM18.65 0.5Q10.3 0.5 6.18-4.03 2.05-8.55 2.05-17.13 2.05-25.7 6.48-30.63 10.9-35.55 19-35.55 27.1-35.55 31.23-30.88 35.35-26.2 35.35-17.6 35.35-9 31.18-4.25 27 0.5 18.65 0.5ZM38-22.9L38-23.8 50.05-23.8 50.05-19.2Q50.85-21.5 52.5-22.9 54.15-24.3 57.5-24.3L57.5-24.3Q65.25-24.3 65.25-15.95L65.25-15.95 65.25-0.9 68.05-0.9 68.05 0 53.9 0 53.9-0.9 55.95-0.9 55.95-17.15Q55.95-20.15 55.55-21.03 55.15-21.9 54.1-21.9L54.1-21.9Q52.5-21.9 51.27-19.8 50.05-17.7 50.05-14.7L50.05-14.7 50.05-0.9 52.2-0.9 52.2 0 38 0 38-0.9 40.75-0.9 40.75-22.9 38-22.9ZM68-22.9L65.95-22.9 65.95-23.8 80.45-23.8 80.45-22.9 77.75-22.9 83.2-6.3 89-22.9 85.65-22.9 85.65-23.8 92.7-23.8 92.7-22.9 90.2-22.9 80.85 4.05Q79.2 8.75 77.15 10.63 75.1 12.5 72.15 12.5 69.2 12.5 67.5 11.15 65.8 9.8 65.8 7.7 65.8 5.6 66.9 4.5 68 3.4 69.8 3.4L69.8 3.4Q73.95 3.4 73.95 6.85L73.95 6.85Q73.95 7.6 73.65 8.65L73.65 8.65 71.9 8.65Q71.5 9.8 71.8 10.55 72.1 11.3 73.15 11.3L73.15 11.3Q75.2 11.3 76.8 9.28 78.4 7.25 79.85 3.1L79.85 3.1 80.95 0 76.55 0 68-22.9ZM105.69-22.9L110.64-14.75 116.54-22.9 112.94-22.9 112.94-23.8 120.39-23.8 120.39-22.9 117.79-22.9 111.29-13.7 119.44-0.9 122.04-0.9 122.04 0 105.34 0 105.34-0.9 108.89-0.9 103.39-9.9 97.69-0.9 100.99-0.9 100.99 0 93.14 0 93.14-0.9 96.44-0.9 102.79-10.9 95.19-22.9 92.29-22.9 92.29-23.8 109.19-23.8 109.19-22.9 105.69-22.9ZM124.34-35L153.84-35 154.34-22.45 153.39-22.45Q151.19-29.1 149.49-31.53 147.79-33.95 144.59-33.95L144.59-33.95 143.99-33.95 143.99-1.05 148.24-1.05 148.24 0 129.99 0 129.99-1.05 134.24-1.05 134.24-33.95 133.59-33.95Q130.39-33.95 128.64-31.43 126.89-28.9 124.79-22.45L124.79-22.45 123.84-22.45 124.34-35ZM172.39-22.4L172.39-22.4Q170.54-22.4 169.14-20 167.74-17.6 167.74-14.3L167.74-14.3 167.74-0.9 171.29-0.9 171.29 0 155.69 0 155.69-0.9 158.44-0.9 158.44-22.9 155.69-22.9 155.69-23.8 167.74-23.8 167.74-19Q168.39-21.55 170.24-22.93 172.09-24.3 174.44-24.3 176.79-24.3 178.26-22.98 179.74-21.65 179.74-19.23 179.74-16.8 178.64-15.5 177.54-14.2 175.26-14.2 172.99-14.2 171.91-15.7 170.84-17.2 171.64-19.85L171.64-19.85 173.44-19.85Q174.69-22.4 172.39-22.4ZM191.69-11.75L191.69-11.75 193.14-11.75 193.14-15.6Q193.14-20.35 192.61-21.98 192.09-23.6 190.59-23.6L190.59-23.6Q189.69-23.6 188.96-23.13 188.24-22.65 188.24-21.83 188.24-21 188.54-20.15L188.54-20.15 189.79-20.15Q190.19-19.1 190.19-17.63 190.19-16.15 188.94-15.08 187.69-14 185.79-14L185.79-14Q181.49-14 181.49-18.15L181.49-18.15Q181.49-24.3 191.94-24.3L191.94-24.3Q197.89-24.3 200.16-22.28 202.44-20.25 202.44-14.85L202.44-14.85 202.44-4.7Q202.44-2.1 203.89-2.1L203.89-2.1Q205.59-2.1 205.89-7.25L205.89-7.25 206.64-7.2Q206.44-2.8 204.99-1.15 203.54 0.5 200.24 0.5L200.24 0.5Q194.24 0.5 193.34-3.2L193.34-3.2Q192.69-1.3 191.39-0.4 190.09 0.5 187.59 0.5L187.59 0.5Q180.19 0.5 180.19-5.55L180.19-5.55Q180.19-9.1 183.01-10.43 185.84-11.75 191.69-11.75ZM189.69-5.6Q189.69-3 189.96-2.25 190.24-1.5 191.01-1.5 191.79-1.5 192.46-2.78 193.14-4.05 193.14-6.3L193.14-6.3 193.14-10.95 192.79-10.95Q189.69-10.95 189.69-6.4L189.69-6.4 189.69-5.6ZM205.68-22.9L203.63-22.9 203.63-23.8 218.58-23.8 218.58-22.9 215.43-22.9 221.43-6.3 226.83-22.9 223.48-22.9 223.48-23.8 230.23-23.8 230.23-22.9 228.03-22.9 220.63 0 214.93 0 205.68-22.9ZM242.63 0.5Q236.18 0.5 232.96-2.83 229.73-6.15 229.73-12.08 229.73-18 233.36-21.15 236.98-24.3 242.58-24.3L242.58-24.3Q253.93-24.3 253.48-12.9L253.48-12.9 239.38-12.9 239.38-10.95Q239.38-6.05 240.63-3.55 241.88-1.05 244.98-1.05L244.98-1.05Q250.78-1.05 252.58-7.25L252.58-7.25 253.48-7.1Q252.53-3.5 250.06-1.5 247.58 0.5 242.63 0.5L242.63 0.5ZM239.43-16.35L239.43-13.9 244.58-13.9 244.58-16.35Q244.58-20.4 244.11-21.88 243.63-23.35 242.21-23.35 240.78-23.35 240.11-21.78 239.43-20.2 239.43-16.35L239.43-16.35ZM255.08-36.6L255.08-37.5 267.33-37.5 267.33-0.9 270.13-0.9 270.13 0 255.28 0 255.28-0.9 258.03-0.9 258.03-36.6 255.08-36.6ZM272.83 0.5L272.23 0.5 272.23-8.45 272.83-8.45Q274.13-4.1 276.33-2.35 278.53-0.6 281.83-0.6L281.83-0.6Q286.93-0.6 286.93-3.85L286.93-3.85Q286.93-5.25 285.68-5.95L285.68-5.95Q283.73-7.05 280.68-7.65L280.68-7.65Q277.28-8.55 274.98-10.05L274.98-10.05Q272.23-11.85 272.23-15.75 272.23-19.65 274.63-21.98 277.03-24.3 281.03-24.3L281.03-24.3Q283.48-24.3 286.08-23.15L286.08-23.15Q287.03-22.75 287.53-22.75 288.03-22.75 288.38-23.1 288.73-23.45 289.23-24.4L289.23-24.4 289.78-24.4 289.78-16.75 289.18-16.75Q286.63-23.25 281.28-23.25L281.28-23.25Q278.93-23.25 277.78-22.43 276.63-21.6 276.63-20.35L276.63-20.35Q276.63-19.6 276.98-19.18 277.33-18.75 277.53-18.55 277.73-18.35 278.18-18.13 278.63-17.9 278.93-17.78 279.23-17.65 279.85-17.45 280.48-17.25 280.78-17.2L280.78-17.2Q284.18-16.35 285.68-15.73 287.18-15.1 288.53-14.2L288.53-14.2Q291.28-12.3 291.28-8.08 291.28-3.85 288.78-1.68 286.28 0.5 281.93 0.5L281.93 0.5Q278.83 0.5 275.93-0.95L275.93-0.95Q275.33-1.35 274.98-1.35L274.98-1.35Q273.88-1.35 272.83 0.5L272.83 0.5Z" opacity="1" transform="matrix(1,0,0,1,0,0)" fill="#000000" class="wordmark-text-0" data-fill-palette-color="primary" id="text-0"></path></svg></g></svg></g></svg></g></svg></g><g transform="matrix(1,0,0,1,0,0.17092480553154132)"><svg viewBox="0 0 67.37624752208667 68.36992221261883" height="68.36992221261883" width="67.37624752208667"><g><svg xmlns="http://www.w3.org/2000/svg" xmlns:xlink="http://www.w3.org/1999/xlink" version="1.1" x="0" y="0" viewBox="4.8762534845101095 6.242 89.24874651548988 90.565" enable-background="new 0 0 100 100" xml:space="preserve" height="68.36992221261883" width="67.37624752208667" class="icon-icon-0" data-fill-palette-color="accent" id="icon-0"><path d="M94.124 52.342L94.125 52.32C94.125 52.239 94.116 52.158 94.103 52.077L94.101 52.051 93.8 50.438 93.787 50.377 89.58 32.051A1.5 1.5 0 0 0 89.499 31.804L89.489 31.778A2 2 0 0 0 89.408 31.619L89.372 31.564C89.367 31.558 89.364 31.55 89.359 31.543L80.647 18.625 80.646 18.624A1.5 1.5 0 0 0 80.49 18.432L80.457 18.398 80.433 18.372A2 2 0 0 0 80.261 18.231L68.243 9.818C68.237 9.813 68.23 9.811 68.224 9.807A1 1 0 0 0 68.147 9.759L68.086 9.723 68.066 9.712C68.045 9.701 68.025 9.694 68.004 9.684L67.943 9.656 67.844 9.621C67.827 9.616 67.812 9.609 67.795 9.605A1 1 0 0 0 67.666 9.575L67.645 9.569 67.639 9.568 67.629 9.566 49.623 6.264H49.621L49.583 6.259 49.523 6.252C49.494 6.249 49.465 6.245 49.436 6.244L49.416 6.242H49.291L49.228 6.246 49.193 6.249 49.146 6.254C49.114 6.258 49.082 6.264 49.05 6.27 49.037 6.273 49.023 6.274 49.01 6.278L48.984 6.283 48.983 6.284 30.683 10.484 30.672 10.487A1.6 1.6 0 0 0 30.187 10.698L30.174 10.704 17.256 19.417 17.248 19.422A1.5 1.5 0 0 0 17.06 19.577C17.052 19.585 17.041 19.592 17.034 19.601L17.014 19.618A2 2 0 0 0 16.863 19.804L8.454 31.821 8.427 31.863C8.41 31.889 8.393 31.915 8.379 31.941L8.35 31.995C8.335 32.024 8.319 32.054 8.307 32.085 8.3 32.102 8.294 32.119 8.286 32.135A1 1 0 0 0 8.237 32.285 1 1 0 0 0 8.213 32.386L8.206 32.417 4.898 50.443 4.895 50.474A2 2 0 0 0 4.879 50.612L4.877 50.666A2 2 0 0 0 4.88 50.843C4.884 50.904 4.894 50.962 4.907 51.022L4.915 51.064C4.927 51.111 4.94 51.156 4.956 51.204L4.969 51.242C5.011 51.352 5.065 51.461 5.134 51.562 5.144 51.579 5.155 51.591 5.167 51.608L5.21 51.668 5.247 51.708 5.287 51.752 5.289 51.756A1.5 1.5 0 0 0 5.213 52.667L9.419 70.993 9.424 71.008A2 2 0 0 0 9.513 71.271C9.547 71.347 9.588 71.423 9.636 71.495L9.639 71.501 18.351 84.42 18.36 84.431A1.5 1.5 0 0 0 18.548 84.653C18.566 84.672 18.582 84.69 18.602 84.707 18.623 84.727 18.649 84.74 18.671 84.76 18.694 84.777 18.713 84.798 18.737 84.815L30.754 93.226C30.767 93.237 30.782 93.246 30.797 93.253L30.851 93.289 30.869 93.298C30.917 93.326 30.967 93.351 31.017 93.373L31.051 93.388C31.103 93.409 31.155 93.426 31.208 93.442 31.231 93.45 31.256 93.453 31.28 93.459S31.326 93.473 31.348 93.477L49.373 96.782C49.384 96.784 49.394 96.783 49.402 96.785L49.468 96.796C49.52 96.802 49.572 96.805 49.626 96.806L49.644 96.807H49.647L49.658 96.806C49.723 96.806 49.789 96.8 49.853 96.791L49.896 96.785C49.912 96.783 49.925 96.778 49.941 96.776 49.955 96.772 49.97 96.771 49.984 96.767L68.277 92.57C68.429 92.539 68.579 92.483 68.722 92.402L68.724 92.4 68.756 92.379 68.76 92.378 68.829 92.334 81.692 83.658C81.888 83.535 82.055 83.369 82.179 83.172L90.54 71.225C90.55 71.212 90.556 71.201 90.564 71.189A1 1 0 0 0 90.642 71.055C90.66 71.022 90.676 70.989 90.691 70.953L90.708 70.91C90.722 70.876 90.734 70.842 90.745 70.806L90.76 70.757C90.768 70.724 90.777 70.691 90.783 70.656L90.79 70.628 94.102 52.6 94.104 52.571C94.11 52.542 94.114 52.512 94.118 52.484 94.123 52.436 94.124 52.39 94.124 52.342M88.302 67.433L81.393 61.285 90.495 55.476zM81.894 78.302L80.058 64.15 87.293 70.588zM23.488 84.439L35.562 82.356 31.153 89.805zM8.792 54.719L18.282 62.71 11.828 67.947zM10.745 35.356L17.135 40.1 8.616 46.974zM16.923 25.004L17.84 36.851 11.779 32.351zM30.7 14.005L35.317 19.916 22.758 19.361zM75.281 18.442L64.621 19.729 67.929 13.295zM85.95 31.903L79.885 35.487 80.619 24zM59.857 76.387L52.32 70.612 61.272 68.373zM39.208 24.199L46.199 30.414 36.1 32.938zM59.787 21.431L49.999 29.673H49.926L40.604 21.387 49.44 10.098zM60.94 24.419L62.705 34.22 53.491 30.691zM69.232 48.594L66.674 38.365 75.525 39.446zM76.782 36.549L65.964 35.227 63.742 22.886 77.764 21.193zM27.77 53.256L30.187 62.925 23.028 61.624zM27.763 46.431L22.319 40.703 31.144 37.604zM32.542 33.904L20.966 37.968 19.748 22.261 36.421 22.997zM19.473 42.105L26.449 49.443 20.24 60.399 8.77 50.74zM22.084 64.53L31.137 66.176 36.42 79.135 21.215 81.758zM38.947 77.307L34.948 67.5 43.898 70.928zM33.504 63.703L29.905 49.309 34.86 36.371 49.536 32.702H50.271L63.393 37.727 66.992 52.121 62.037 65.06 47.361 68.729H46.626zM69.171 54.901L75.32 60.858 65.712 63.932zM78.385 59.609L70.55 52.02 78.42 40.587 90.189 52.077zM61.617 18.944L53.501 10.055 65.095 12.18zM38.536 19.115L33.683 12.904 45.524 10.186zM18.975 66.049L18.324 78.96 12.926 70.956zM38.677 83.041L46.146 93.105 34.034 90.885zM49.611 92.694L40.435 80.328 47.087 71.758H48.836L58.845 79.427zM64.502 67.501L76.922 63.526 79.13 80.547 62.674 77.858zM80.663 38.545L87.092 34.747 90.072 47.732zM53.134 92.935L60.812 81.909 65.621 90.07zM68.463 88.927L63.863 81.121 76.883 83.25z" fill="#000000" data-fill-palette-color="accent"></path></svg></g></svg></g></svg></g></svg></g></svg></g><defs></defs></svg><rect width="395.52" height="247.2" fill="none" stroke="none" visibility="hidden"></rect></g></svg></g></svg>